<?xml version="1.0" encoding="UTF-8" standalone="no"?>
<!-- Created with Inkscape (http://www.inkscape.org/) -->

<svg
   xmlns:dc="http://purl.org/dc/elements/1.1/"
   xmlns:cc="http://creativecommons.org/ns#"
   xmlns:rdf="http://www.w3.org/1999/02/22-rdf-syntax-ns#"
   xmlns:svg="http://www.w3.org/2000/svg"
   xmlns="http://www.w3.org/2000/svg"
   xmlns:sodipodi="http://sodipodi.sourceforge.net/DTD/sodipodi-0.dtd"
   xmlns:inkscape="http://www.inkscape.org/namespaces/inkscape"
   width="512"
   height="512"
   id="svg2"
   version="1.1"
   inkscape:version="0.48.2 r9819"
   sodipodi:docname="logo.svg">
  <defs
     id="defs4" />
  <sodipodi:namedview
     id="base"
     pagecolor="#c0c0c0"
     bordercolor="#666666"
     borderopacity="1.0"
     inkscape:pageopacity="1"
     inkscape:pageshadow="2"
     inkscape:zoom="0.76068548"
     inkscape:cx="403.10627"
     inkscape:cy="202.85714"
     inkscape:document-units="px"
     inkscape:current-layer="layer1"
     showgrid="false"
     inkscape:window-width="874"
     inkscape:window-height="754"
     inkscape:window-x="162"
     inkscape:window-y="64"
     inkscape:window-maximized="0" />
  <metadata
     id="metadata7">
    <rdf:RDF>
      <cc:Work
         rdf:about="">
        <dc:format>image/svg+xml</dc:format>
        <dc:type
           rdf:resource="http://purl.org/dc/dcmitype/StillImage" />
        <dc:title></dc:title>
      </cc:Work>
    </rdf:RDF>
  </metadata>
  <g
     inkscape:label="Layer 1"
     inkscape:groupmode="layer"
     id="layer1"
     transform="translate(0,-540.36218)">
    <path
       style="fill:none;stroke:#000000;stroke-width:16;stroke-linecap:round;stroke-linejoin:round;stroke-miterlimit:4;stroke-opacity:1;stroke-dasharray:none"
       d="m 340.79194,579.10482 c 0,-15.77524 -7.84452,-32.47628 -34.1797,-32.86509 -31.6929,-0.46791 -48.64034,15.77525 -49.95495,32.86509 -1.3146,17.08985 -17.07304,41.27771 -49.95494,42.06733 -32.89307,0.78988 -35.49429,-36.80891 -35.49429,-36.80891"
       id="path3004"
       inkscape:connector-curvature="0"
       sodipodi:nodetypes="csssc" />
    <path
       style="fill:none;stroke:#000000;stroke-width:16;stroke-linecap:round;stroke-linejoin:round;stroke-miterlimit:4;stroke-opacity:1;stroke-dasharray:none"
       d="m 394.6907,790.75603 c -2.62921,-36.80891 -13.16941,-141.59039 -64.41559,-136.71879 -57.71665,5.4867 -67.04479,143.29181 -67.04479,143.29181 0,0 -5.23955,-142.66878 -63.10098,-140.66261 -74.89894,2.5969 -82.82004,139.34801 -82.82004,139.34801"
       id="path3006"
       inkscape:connector-curvature="0"
       sodipodi:nodetypes="cscsc" />
    <path
       style="fill:none;stroke:#000000;stroke-width:16;stroke-linecap:round;stroke-linejoin:round;stroke-miterlimit:4;stroke-opacity:1;stroke-dasharray:none"
       d="m 255.34269,881.46369 1.31461,43.38193"
       id="path3008"
       inkscape:connector-curvature="0" />
    <path
       style="fill:none;stroke:#000000;stroke-width:16;stroke-linecap:round;stroke-linejoin:round;stroke-miterlimit:4;stroke-opacity:1;stroke-dasharray:none"
       d="m 127.16882,882.7783 -36.808895,27.60667 c 0,0 55.265945,80.92865 163.010855,77.56162 42.06733,-1.3146 128.83119,-15.77523 168.2693,-63.10097"
       id="path3014"
       inkscape:connector-curvature="0"
       sodipodi:nodetypes="ccsc" />
    <path
       style="fill:none;stroke:#000000;stroke-width:16;stroke-linecap:round;stroke-linejoin:round;stroke-miterlimit:4;stroke-opacity:1;stroke-dasharray:none"
       d="M 11.831434,218.84337 C 40.752717,204.38272 70.988603,188.60747 67.044792,170.20302 63.10098,151.79857 60.471773,141.28174 35.494301,153.11317 7.4551404,166.39487 9.5945679,188.80531 7.8876228,231.9894 1.2861703,398.99987 72.311955,509.28555 269.49377,509.37079 466.67558,509.45603 510.76901,346.01025 507.43705,226.73098"
       id="path3016"
       inkscape:connector-curvature="0"
       transform="translate(0,540.36218)"
       sodipodi:nodetypes="cssszc" />
    <g
       id="g3817"
       transform="translate(-2.4320153,0)">
      <path
         transform="matrix(0.8393771,0,0,1.0583451,43.988479,533.48716)"
         d="m 336.53856,237.90512 c 0,8.34941 -8.53424,15.11794 -19.06175,15.11794 -10.52752,0 -19.06176,-6.76853 -19.06176,-15.11794 0,-8.34941 8.53424,-15.11794 19.06176,-15.11794 10.52751,0 19.06175,6.76853 19.06175,15.11794 z"
         sodipodi:ry="15.117943"
         sodipodi:rx="19.061754"
         sodipodi:cy="237.90512"
         sodipodi:cx="317.47681"
         id="path3020"
         style="fill:#000000;fill-opacity:1;fill-rule:evenodd;stroke:none"
         sodipodi:type="arc" />
      <path
         transform="matrix(0.8393771,0,0,1.0583451,-60.089971,533.48716)"
         d="m 336.53856,237.90512 c 0,8.34941 -8.53424,15.11794 -19.06175,15.11794 -10.52752,0 -19.06176,-6.76853 -19.06176,-15.11794 0,-8.34941 8.53424,-15.11794 19.06176,-15.11794 10.52751,0 19.06175,6.76853 19.06175,15.11794 z"
         sodipodi:ry="15.117943"
         sodipodi:rx="19.061754"
         sodipodi:cy="237.90512"
         sodipodi:cx="317.47681"
         id="path3020-7"
         style="fill:#000000;fill-opacity:1;fill-rule:evenodd;stroke:none"
         sodipodi:type="arc" />
    </g>
    <path
       sodipodi:type="arc"
       style="fill:#000000;fill-opacity:1;fill-rule:evenodd;stroke:none"
       id="path3020-9"
       sodipodi:cx="317.47681"
       sodipodi:cy="237.90512"
       sodipodi:rx="19.061754"
       sodipodi:ry="15.117943"
       d="m 336.53856,237.90512 a 19.061754,15.117943 0 1 1 -38.12351,0 19.061754,15.117943 0 1 1 38.12351,0 z"
       transform="matrix(0.8393771,0,0,1.0583451,-10.482761,582.35223)" />
  </g>
</svg>
