<?xml version="1.0" encoding="UTF-8" standalone="no"?>
<!-- Created with Inkscape (http://www.inkscape.org/) -->

<svg
   xmlns:dc="http://purl.org/dc/elements/1.1/"
   xmlns:cc="http://creativecommons.org/ns#"
   xmlns:rdf="http://www.w3.org/1999/02/22-rdf-syntax-ns#"
   xmlns:svg="http://www.w3.org/2000/svg"
   xmlns="http://www.w3.org/2000/svg"
   xmlns:sodipodi="http://sodipodi.sourceforge.net/DTD/sodipodi-0.dtd"
   xmlns:inkscape="http://www.inkscape.org/namespaces/inkscape"
   width="512"
   height="512"
   id="svg2"
   version="1.1"
   inkscape:version="0.48.2 r9819"
   sodipodi:docname="logo.svg">
  <defs
     id="defs4" />
  <sodipodi:namedview
     id="base"
     pagecolor="#c0c0c0"
     bordercolor="#666666"
     borderopacity="1.0"
     inkscape:pageopacity="1"
     inkscape:pageshadow="2"
     inkscape:zoom="1.0066683"
     inkscape:cx="238.88243"
     inkscape:cy="241.8772"
     inkscape:document-units="px"
     inkscape:current-layer="layer1"
     showgrid="false"
     inkscape:window-width="874"
     inkscape:window-height="754"
     inkscape:window-x="0"
     inkscape:window-y="0"
     inkscape:window-maximized="0"
     inkscape:snap-page="true"
     showguides="true"
     inkscape:guide-bbox="true"
     inkscape:snap-bbox="true"
     inkscape:snap-bbox-edge-midpoints="true"
     inkscape:snap-global="true"
     inkscape:snap-bbox-midpoints="true">
    <inkscape:grid
       type="xygrid"
       id="grid3765" />
    <sodipodi:guide
       orientation="0,1"
       position="512,256"
       id="guide3767" />
    <sodipodi:guide
       orientation="1,0"
       position="256,202.22423"
       id="guide3769" />
    <sodipodi:guide
       orientation="0,1"
       position="444.039,146.02625"
       id="guide3771" />
    <sodipodi:guide
       orientation="0,1"
       position="39.735034,393.37683"
       id="guide3773" />
    <sodipodi:guide
       orientation="0,1"
       position="58.609175,277.15186"
       id="guide3775" />
    <sodipodi:guide
       orientation="0,1"
       position="31.788027,459.93301"
       id="guide3777" />
  </sodipodi:namedview>
  <metadata
     id="metadata7">
    <rdf:RDF>
      <cc:Work
         rdf:about="">
        <dc:format>image/svg+xml</dc:format>
        <dc:type
           rdf:resource="http://purl.org/dc/dcmitype/StillImage" />
        <dc:title />
      </cc:Work>
    </rdf:RDF>
  </metadata>
  <g
     inkscape:label="Layer 1"
     inkscape:groupmode="layer"
     id="layer1"
     transform="translate(0,-540.36218)">
    <path
       sodipodi:type="arc"
       style="fill:#ffffff;fill-opacity:1;fill-rule:evenodd;stroke:none"
       id="path2991"
       sodipodi:cx="295.78586"
       sodipodi:cy="283.25894"
       sodipodi:rx="273.43759"
       sodipodi:ry="255.03313"
       d="m 569.22345,283.25894 a 273.43759,255.03313 0 1 1 -546.875183,0 273.43759,255.03313 0 1 1 546.875183,0 z"
       transform="matrix(0.93622826,0,0,1.0037912,-20.923079,512.02935)" />
    <path
       style="fill:none;stroke:#000000;stroke-width:16;stroke-linecap:butt;stroke-linejoin:miter;stroke-miterlimit:4;stroke-opacity:1;stroke-dasharray:none"
       d="m 339.79856,592.42423 c 0,0 -12.54186,-37.1796 -41.89927,-37.46741 -54.95658,6.60149 -42.09113,72.78615 -83.79857,74.93242 -32.89307,0.78988 -41.89928,-36.80891 -41.89928,-36.80891"
       id="path3004"
       inkscape:connector-curvature="0"
       sodipodi:nodetypes="cccc" />
    <path
       style="fill:none;stroke:#000000;stroke-width:16;stroke-linecap:butt;stroke-linejoin:miter;stroke-miterlimit:4;stroke-opacity:1;stroke-dasharray:none"
       d="m 398.16751,796.36218 c 0,0 1.25434,-137.37683 -71.08376,-137.37683 C 269.3671,658.98535 256,796.36218 256,796.36218 c 0,0 -13.18756,-137.37683 -71.08376,-137.37683 -73.90556,0 -71.08376,137.0291 -71.08376,137.0291"
       id="path3006"
       inkscape:connector-curvature="0"
       sodipodi:nodetypes="cscsc" />
    <path
       style="fill:none;stroke:#000000;stroke-width:16;stroke-linecap:butt;stroke-linejoin:miter;stroke-miterlimit:4;stroke-opacity:1;stroke-dasharray:none"
       d="m 256,873.71783 0,65.2362"
       id="path3008"
       inkscape:connector-curvature="0"
       sodipodi:nodetypes="cc" />
    <path
       style="fill:none;stroke:#000000;stroke-width:16;stroke-linecap:butt;stroke-linejoin:miter;stroke-miterlimit:4;stroke-opacity:1;stroke-dasharray:none"
       d="m 139.08933,880.79155 -36.80889,25.54438 c 0,0 47.51391,74.05056 155.25882,70.68353 42.06733,-1.3146 114.72895,-11.43728 162.11407,-70.68353"
       id="path3014"
       inkscape:connector-curvature="0"
       sodipodi:nodetypes="ccsc" />
    <path
       style="fill:none;stroke:#000000;stroke-width:16;stroke-linecap:butt;stroke-linejoin:miter;stroke-miterlimit:4;stroke-opacity:1;stroke-dasharray:none"
       d="m 46.00844,359.37909 60.40427,-61.6573 c 0,0 -12.074511,-42.30389 -44.990753,-30.35466 -29.266751,10.6244 -35.027885,50.12672 -26.292075,74.58468 C 55.840077,399.9349 127.40224,495.55644 257.53926,494.32708 387.67628,493.09772 497.39082,375.27927 494.05886,256"
       id="path3016"
       inkscape:connector-curvature="0"
       transform="translate(0,540.36218)"
       sodipodi:nodetypes="ccsszc" />
    <g
       id="g3817"
       transform="translate(-2.4320153,-10.062559)">
      <path
         transform="matrix(0.8393771,0,0,1.0583451,43.988479,533.48716)"
         d="m 336.53856,237.90512 c 0,8.34941 -8.53424,15.11794 -19.06175,15.11794 -10.52752,0 -19.06176,-6.76853 -19.06176,-15.11794 0,-8.34941 8.53424,-15.11794 19.06176,-15.11794 10.52751,0 19.06175,6.76853 19.06175,15.11794 z"
         sodipodi:ry="15.117943"
         sodipodi:rx="19.061754"
         sodipodi:cy="237.90512"
         sodipodi:cx="317.47681"
         id="path3020"
         style="fill:#000000;fill-opacity:1;fill-rule:evenodd;stroke:none"
         sodipodi:type="arc" />
      <path
         transform="matrix(0.8393771,0,0,1.0583451,-60.089971,533.48716)"
         d="m 336.53856,237.90512 c 0,8.34941 -8.53424,15.11794 -19.06175,15.11794 -10.52752,0 -19.06176,-6.76853 -19.06176,-15.11794 0,-8.34941 8.53424,-15.11794 19.06176,-15.11794 10.52751,0 19.06175,6.76853 19.06175,15.11794 z"
         sodipodi:ry="15.117943"
         sodipodi:rx="19.061754"
         sodipodi:cy="237.90512"
         sodipodi:cx="317.47681"
         id="path3020-7"
         style="fill:#000000;fill-opacity:1;fill-rule:evenodd;stroke:none"
         sodipodi:type="arc" />
    </g>
    <path
       sodipodi:type="arc"
       style="fill:#000000;fill-opacity:1;fill-rule:evenodd;stroke:none"
       id="path3020-9"
       sodipodi:cx="317.47681"
       sodipodi:cy="237.90512"
       sodipodi:rx="19.061754"
       sodipodi:ry="15.117943"
       d="m 336.53856,237.90512 a 19.061754,15.117943 0 1 1 -38.12351,0 19.061754,15.117943 0 1 1 38.12351,0 z"
       transform="matrix(0.8393771,0,0,1.0583451,-10.482761,582.35223)" />
  </g>
</svg>
